<svg id="business-card" enable-background="new 0 0 300 300" height="512" viewBox="0 0 300 300" width="512" xmlns="http://www.w3.org/2000/svg"><g><circle cx="134.001" cy="128" fill="#ffe8dc" r="86"/><path d="m134.001 258c-7.719 0-14-6.281-14-14s6.281-14 14-14 14 6.281 14 14-6.281 14-14 14zm0-20c-3.309 0-6 2.691-6 6s2.691 6 6 6 6-2.691 6-6-2.692-6-6-6z" fill="#4c241d"/><circle cx="250.001" cy="244" fill="#4c241d" r="4.276"/><path d="m92.813 79.219c-1.027 0-2.051-.391-2.832-1.176-1.562-1.566-1.555-4.098.008-5.656l14.723-14.672c1.566-1.562 4.098-1.559 5.656.008 1.562 1.566 1.555 4.098-.008 5.656l-14.722 14.672c-.782.777-1.805 1.168-2.825 1.168z" fill="#4c241d"/><g><path d="m240.001 134.355-.636-.071c-22.991-2.558-35.226 12.706-55.364 24.103l-65.817 21.969c-3.692 1.232-6.183 4.692-6.183 8.59 0 5.17 4.315 9.29 9.472 9.044l74.528-3.554z" fill="#6b4f5b"/><path d="m121.024 202c-3.359 0-6.523-1.266-8.977-3.605-2.609-2.488-4.047-5.844-4.047-9.449 0-5.625 3.582-10.602 8.914-12.383l65.449-21.848c5.141-2.934 9.793-6.145 14.293-9.258 12.789-8.836 24.863-17.148 43.148-15.148l.633.07c1.422.156 2.648 1.059 3.223 2.367.578 1.305.41 2.82-.434 3.973l-44 60.082c-.715.977-1.828 1.574-3.035 1.633l-74.527 3.551c-.214.007-.429.015-.64.015zm111.313-63.949c-11.766.609-20.5 6.645-31.133 13.988-4.742 3.277-9.648 6.668-15.234 9.828-.223.129-.457.23-.703.312l-65.816 21.969c-2.062.691-3.449 2.617-3.449 4.797 0 1.398.555 2.699 1.566 3.66 1.008.961 2.312 1.449 3.715 1.387l72.621-3.461z" fill="#4c241d"/></g><g><path d="m263.461 182h-146.92c-2.507 0-4.54-2.033-4.54-4.54v-78.92c0-2.507 2.033-4.54 4.54-4.54h146.92c2.507 0 4.54 2.033 4.54 4.54v78.92c0 2.507-2.033 4.54-4.54 4.54z" fill="#a9ba5a"/><path d="m263.462 186h-146.922c-4.707 0-8.539-3.832-8.539-8.539v-78.922c0-4.707 3.832-8.539 8.539-8.539h146.922c4.707 0 8.539 3.832 8.539 8.539v78.922c0 4.707-3.832 8.539-8.539 8.539zm-146.922-88c-.297 0-.539.242-.539.539v78.922c0 .297.242.539.539.539h146.922c.297 0 .539-.242.539-.539v-78.922c0-.297-.242-.539-.539-.539z" fill="#4c241d"/></g><g fill="#4c241d"><path d="m107.509 79.246c-1.027 0-2.051-.391-2.832-1.176l-14.668-14.722c-1.562-1.566-1.555-4.098.008-5.656 1.566-1.562 4.098-1.559 5.656.008l14.668 14.723c1.562 1.566 1.555 4.098-.008 5.656-.781.78-1.805 1.167-2.824 1.167z"/><circle cx="110.001" cy="216" r="3.707"/><path d="m184.001 114h-56c-2.211 0-4-1.789-4-4s1.789-4 4-4h56c2.211 0 4 1.789 4 4s-1.789 4-4 4z"/><path d="m152.001 126h-24c-2.211 0-4-1.789-4-4s1.789-4 4-4h24c2.211 0 4 1.789 4 4s-1.789 4-4 4z"/><path d="m208.001 126h-40c-2.211 0-4-1.789-4-4s1.789-4 4-4h40c2.211 0 4 1.789 4 4s-1.789 4-4 4z"/></g><g><path d="m72.032 242s18.195-17.87 22.663-19.992c5.943-2.822 12.451-4.302 19.069-4.302h66.664c11.378 0 22.2-4.983 29.67-13.664l47.043-54.662c4.254-4.943 3.738-12.533-1.384-16.823-4.808-4.027-12.078-3.099-16.325 1.515l-43.809 47.593c-7.109 7.725-17.072 12.335-27.504 12.335h-21.761c-5.742 0-10.396-4.932-10.396-10.739 0-5.807 6.298-13.261 12.039-13.261h15.216c4.726 0 12.246-1.306 16.597-3.15 17.872-7.573 11.39-20.85-1.218-20.85h-77.294c-.133 0-.266 0-.399.001-16.841.103-32.332 9.298-41.453 23.456l-8.608 13.361-18.84 10.958" fill="#e7d1c4"/><path d="m72.032 246c-1.035 0-2.07-.398-2.855-1.195-1.547-1.578-1.523-4.109.051-5.66 4.383-4.301 19.043-18.516 23.754-20.75 6.461-3.066 13.645-4.688 20.781-4.688h66.664c10.215 0 19.926-4.473 26.641-12.273l47.043-54.66c1.375-1.602 2.039-3.648 1.863-5.77-.172-2.109-1.16-4.02-2.781-5.379-3.039-2.543-7.887-2.023-10.82 1.16l-43.809 47.59c-7.969 8.66-19.066 13.625-30.445 13.625h-21.762c-7.938 0-14.395-6.613-14.395-14.738 0-7.539 7.777-17.262 16.039-17.262h15.215c4.527 0 11.414-1.297 15.039-2.832 5.73-2.43 9.062-5.816 8.492-8.633-.445-2.199-3.457-4.535-8.152-4.535h-77.293c-15.578.094-29.828 8.18-38.488 21.625l-8.609 13.359c-.344.531-.805.973-1.352 1.289l-18.84 10.961c-1.91 1.102-4.359.461-5.469-1.445-1.113-1.91-.465-4.359 1.445-5.469l18.008-10.477 8.09-12.555c10.133-15.722 26.875-25.175 44.793-25.288h.422 77.293c8.105 0 14.684 4.5 15.992 10.941.527 2.59 1.129 11.516-13.211 17.594-5.121 2.168-13.254 3.465-18.16 3.465h-15.215c-3.305 0-8.039 5.453-8.039 9.262 0 3.652 2.93 6.738 6.395 6.738h21.762c9.148 0 18.102-4.023 24.562-11.043l43.809-47.594c5.781-6.273 15.574-7.113 21.836-1.871 3.277 2.746 5.273 6.602 5.625 10.859.348 4.27-.992 8.402-3.777 11.641l-47.043 54.66c-8.238 9.566-20.156 15.055-32.703 15.055h-66.664c-5.957 0-11.957 1.355-17.352 3.914-2.383 1.133-13.055 10.863-21.574 19.234-.783.762-1.794 1.145-2.806 1.145z" fill="#4c241d"/></g></g></svg>