<svg id="Layer_35" enable-background="new 0 0 64 64" height="512" viewBox="0 0 64 64" width="512" xmlns="http://www.w3.org/2000/svg"><path d="m20.5 17.5-5 5-5 5-3-3 10-10z" fill="#fcd770"/><g fill="#b4dd7f"><path d="m15.5 22.5 7 7c-1.47 1.47-3.19 3.19-5 5l-7-7z"/><path d="m34.214 41.618h7.071v16.263h-7.071z" transform="matrix(.707 -.707 .707 .707 -24.122 41.265)"/><path d="m20.5 17.5 5.55 5.55c-.16 1.99-.98 3.88-2.42 5.32-.35.35-.73.73-1.13 1.13l-7-7z"/><path d="m51 48-5 5-11.5-11.5 1.13-1.13c1.45-1.45 3.34-2.26 5.34-2.42v.02z"/></g><path d="m55 61v1h-1l-13-4 5-5 5-5z" fill="#dfb28b"/><path d="m17.5 14.5-10 10-4.09-4.09c-.9-.9-1.41-2.13-1.41-3.41s.51-2.51 1.41-3.41l3.18-3.18c.9-.9 2.13-1.41 3.41-1.41s2.51.51 3.41 1.41z" fill="#e6e9ed"/><path d="m20.5 55.5-2.01 2.01c-1.6 1.6-3.75 2.49-6 2.49-4.69 0-8.49-3.8-8.49-8.49 0-2.25.89-4.4 2.48-5.99l2.02-2.02z" fill="#aab2bd"/><path d="m25 54.88c0 .58-.24 1.12-.62 1.5s-.92.62-1.5.62c-.56 0-1.1-.22-1.5-.62l-.88-.88-12-12-.88-.88c-.4-.4-.62-.94-.62-1.5 0-1.17.95-2.12 2.12-2.12.56 0 1.1.22 1.5.62l13.76 13.76c.4.4.62.94.62 1.5z" fill="#d3a06c"/><path d="m29.38 52.38c.4.4.62.94.62 1.5 0 .58-.24 1.12-.62 1.5s-.92.62-1.5.62c-.56 0-1.1-.22-1.5-.62l-2-2-13.76-13.76-2-2c-.4-.4-.62-.94-.62-1.5 0-1.17.95-2.12 2.12-2.12.56 0 1.1.22 1.5.62l2.88 2.88 4.5 4.5 3 3 4.5 4.5z" fill="#d3a06c"/><path d="m42.39 2.07c-8.17.71-14.94 7.06-16.18 15.17-.22 1.45-.26 2.87-.15 4.25.04.52.04 1.05-.01 1.56-.16 1.99-.98 3.88-2.42 5.32-.35.35-.73.73-1.13 1.13-1.47 1.47-3.19 3.19-5 5-.99.99-2 2-3 3l4.5 4.5 3 3 4.5 4.5 3-3 5-5 1.13-1.13c1.45-1.45 3.34-2.26 5.34-2.42.51-.05 1.02-.05 1.54-.01 1.38.11 2.8.07 4.25-.15 8.11-1.24 14.46-8.01 15.17-16.18.97-11.21-8.33-20.51-19.54-19.54z" fill="#fcd770"/><path d="m52.12 22.88c.54.54.88 1.29.88 2.12s-.34 1.58-.88 2.12-1.29.88-2.12.88c-1.66 0-3-1.34-3-3v-2.01l.12-.11c.56-.56 1.33-.88 2.12-.88h.76c.83 0 1.58.34 2.12.88z" fill="#ffeaa7"/><path d="m41 14v1.76c0 .43-.09.85-.27 1.24h-2.73c-.83 0-1.58-.34-2.12-.88s-.88-1.29-.88-2.12.34-1.58.88-2.12 1.29-.88 2.12-.88c1.66 0 3 1.34 3 3z" fill="#ffeaa7"/><path d="m57.435 6.565c-3.978-3.979-9.49-5.979-15.127-5.491-8.596.745-15.781 7.479-17.085 16.014-.178 1.167-.245 2.344-.209 3.512l-10.893-10.893c-1.1-1.101-2.564-1.707-4.121-1.707s-3.021.606-4.121 1.707l-3.172 3.172c-1.101 1.1-1.707 2.564-1.707 4.121s.606 3.021 1.707 4.121l13.379 13.379-1.586 1.586-2.172-2.172c-.589-.589-1.373-.914-2.207-.914-1.721 0-3.121 1.4-3.121 3.121 0 .808.31 1.565.865 2.147-1.096.485-1.865 1.579-1.865 2.853 0 .834.325 1.618.914 2.207l.172.172-1.31 1.31c-1.79 1.79-2.776 4.171-2.776 6.705 0 5.23 4.255 9.485 9.485 9.485 2.534 0 4.916-.987 6.707-2.778l1.308-1.308.172.172c.589.589 1.373.914 2.207.914 1.274 0 2.368-.769 2.853-1.865.582.555 1.339.865 2.147.865 1.721 0 3.121-1.4 3.121-3.121 0-.834-.325-1.618-.914-2.207l-2.172-2.172 1.586-1.586 10.969 10.969 13.237 4.073 2.294.044v-2l-4.117-13.531-8.482-8.482c1.168.036 2.345-.031 3.512-.209 8.534-1.304 15.269-8.489 16.014-17.085.488-5.636-1.513-11.15-5.492-15.128zm-34.514 21.1-.421.421-5.586-5.586 3.586-3.586 4.506 4.506c-.234 1.62-.951 3.11-2.085 4.245zm-12.421-1.579-1.586-1.586 8.586-8.586 1.586 1.586zm-7.5-9.086c0-1.022.398-1.984 1.121-2.707l3.172-3.172c1.446-1.446 3.968-1.446 5.414 0l3.379 3.379-8.586 8.586-3.379-3.379c-.723-.723-1.121-1.685-1.121-2.707zm8.914 10.5 3.586-3.586 5.586 5.586-3.586 3.586zm5.864 29.308c-1.414 1.413-3.293 2.192-5.293 2.192-4.127 0-7.485-3.358-7.485-7.485 0-2 .778-3.878 2.19-5.291l1.31-1.31 10.586 10.586zm5.101-.808c-.3 0-.581-.117-.793-.328l-13.758-13.758c-.211-.212-.328-.493-.328-.793 0-.618.503-1.121 1.121-1.121.3 0 .581.117.793.328l13.758 13.758c.211.212.328.493.328.793 0 .618-.503 1.121-1.121 1.121zm6.121-2.121c0 .618-.503 1.121-1.121 1.121-.3 0-.581-.117-.793-.328l-2-2-13.758-13.758-2-2c-.211-.212-.328-.493-.328-.793 0-.618.503-1.121 1.121-1.121.3 0 .581.117.793.328l17.758 17.758c.211.212.328.493.328.793zm11.828-35.293c.182-.182.344-.378.485-.586h4.687v4.534l-23.956 21.095-1.675-1.675zm-.843-2.586h-1.985c-1.103 0-2-.897-2-2s.897-2 2-2 2 .897 2 2v1.757c0 .082-.005.163-.015.243zm.595 22.994 9.006 9.006-3.586 3.586-10.086-10.086.418-.418c1.137-1.136 2.627-1.854 4.248-2.088zm-6.08 3.92 10.086 10.086-3.586 3.586-10.086-10.086zm19.433 18.019-11.052-3.4 7.651-7.651zm7.001-39.413c-.667 7.688-6.69 14.115-14.323 15.281-1.337.204-2.69.252-4.018.141-2.899-.241-5.701.752-7.675 2.726l-8.418 8.418-3.04-3.04 22.544-19.854c.101 2.117 1.855 3.808 3.996 3.808 2.206 0 4-1.794 4-4s-1.794-4-4-4h-.757c-.43 0-.849.067-1.243.194v-5.194h-6.007c.005-.081.007-.161.007-.243v-1.757c0-2.206-1.794-4-4-4s-4 1.794-4 4 1.794 4 4 4h.686l-19.735 22.537-3.037-3.037 8.421-8.421c1.972-1.972 2.965-4.769 2.723-7.672-.111-1.329-.063-2.68.141-4.018 1.167-7.633 7.593-13.657 15.281-14.323 5.05-.434 9.981 1.354 13.541 4.913 3.56 3.56 5.35 8.495 4.913 13.541zm-12.934 3.48v-1.567c.353-.281.786-.433 1.243-.433h.757c1.103 0 2 .897 2 2s-.897 2-2 2-2-.897-2-2z"/><path d="m44 5v2c5.71 0 10.835 3.818 12.462 9.285l1.917-.57c-1.878-6.309-7.791-10.715-14.379-10.715z"/><path d="m57 20h2c0-.716-.051-1.437-.152-2.141l-1.979.282c.087.612.131 1.237.131 1.859z"/></svg>