<?xml version="1.0" encoding="iso-8859-1"?>
<!-- Generator: Adobe Illustrator 19.0.0, SVG Export Plug-In . SVG Version: 6.00 Build 0)  -->
<svg version="1.1" id="Capa_1" xmlns="http://www.w3.org/2000/svg" xmlns:xlink="http://www.w3.org/1999/xlink" x="0px" y="0px"
	 viewBox="0 0 454.56 454.56" style="enable-background:new 0 0 454.56 454.56;" xml:space="preserve">
<g>
	<g>
		<polygon style="fill:#00EFD1;" points="371.476,221.011 444.096,165.631 444.096,412.749 442.006,412.749 271.166,297.811 		"/>
		<polygon style="fill:#00ACEA;" points="444.096,164.586 444.096,165.631 371.476,221.011 371.476,115.998 373.566,115.998 		"/>
		<polygon style="fill:#00CEB4;" points="442.006,412.749 12.553,412.749 181.827,299.378 182.872,297.811 227.28,331.77 
			271.166,297.811 		"/>
		<polygon style="fill:#D4E1F4;" points="83.084,114.431 83.084,41.288 371.476,41.288 371.476,115.998 371.476,221.011 
			271.166,297.811 227.28,331.77 182.872,297.811 83.084,221.011 		"/>
		<polygon style="fill:#00EFD1;" points="83.084,221.011 182.872,297.811 181.827,299.378 12.553,412.749 10.464,412.749 
			10.464,165.631 		"/>
		<polygon style="fill:#00ACEA;" points="83.084,114.431 83.084,221.011 10.464,165.631 10.464,164.586 		"/>
	</g>
	<g>
		<path style="fill:#083863;" d="M444.096,423.198H10.464c-5.474,0.297-10.152-3.901-10.449-9.375c-0.019-0.358-0.019-0.716,0-1.074
			V164.586c0.028-3.409,1.803-6.565,4.702-8.359l73.665-51.2l12.016,16.718l-1.567,1.567l-67.918,47.02V402.3h412.735V170.333
			l-65.829-45.976l12.016-16.718l70.008,48.588c2.899,1.794,4.674,4.95,4.702,8.359v248.163c0.297,5.474-3.901,10.152-9.375,10.449
			C444.812,423.218,444.454,423.218,444.096,423.198z"/>
		
			<rect x="346.455" y="252.425" transform="matrix(-0.5592 0.829 -0.829 -0.5592 851.1221 258.2476)" style="fill:#083863;" width="20.898" height="205.949"/>
		
			<rect x="-4.93" y="345.599" transform="matrix(-0.83 0.5577 -0.5577 -0.83 376.0009 597.4982)" style="fill:#083863;" width="203.755" height="20.898"/>
		<path style="fill:#083863;" d="M227.28,342.219c-2.342-0.059-4.578-0.991-6.269-2.612L3.149,172.945l12.539-16.196h1.045
			L227.28,318.186l211.592-161.437l12.539,16.196l-1.045,1.045L233.549,339.607C231.858,341.228,229.622,342.159,227.28,342.219z"/>
		<path style="fill:#083863;" d="M381.925,226.758h-20.898V52.26H93.533v174.498H72.635V41.811
			c-0.297-5.474,3.901-10.152,9.375-10.449c0.358-0.019,0.716-0.019,1.074,0h288.392c5.474-0.297,10.152,3.901,10.449,9.375
			c0.019,0.358,0.019,0.716,0,1.074V226.758z"/>
		<path style="fill:#083863;" d="M190.708,117.566h-47.02c-5.771,0-10.449-4.678-10.449-10.449c0-5.771,4.678-10.449,10.449-10.449
			h47.02c5.771,0,10.449,4.678,10.449,10.449C201.157,112.888,196.479,117.566,190.708,117.566z"/>
		<path style="fill:#083863;" d="M310.872,164.586H143.688c-5.771,0-10.449-4.678-10.449-10.449s4.678-10.449,10.449-10.449h167.184
			c5.771,0,10.449,4.678,10.449,10.449S316.642,164.586,310.872,164.586z"/>
		<path style="fill:#083863;" d="M310.872,211.607H143.688c-5.771,0-10.449-4.678-10.449-10.449c0-5.771,4.678-10.449,10.449-10.449
			h167.184c5.771,0,10.449,4.678,10.449,10.449C321.321,206.928,316.642,211.607,310.872,211.607z"/>
	</g>
</g>
<g>
</g>
<g>
</g>
<g>
</g>
<g>
</g>
<g>
</g>
<g>
</g>
<g>
</g>
<g>
</g>
<g>
</g>
<g>
</g>
<g>
</g>
<g>
</g>
<g>
</g>
<g>
</g>
<g>
</g>
</svg>
