<svg id="Layer_1" enable-background="new 0 0 512 512" height="512" viewBox="0 0 512 512" width="512" xmlns="http://www.w3.org/2000/svg"><g><path d="m174 60-164-50v442l164 50z" fill="#f9f9f9"/><path d="m338 10-164 50v442l164-50z" fill="#fff"/><path d="m298 264-84 26v108l84-26z" fill="#ff7d97"/><path d="m502 60-164-50v442l164 50z" fill="#f9f9f9"/><path d="m378 320 84 26v98l-84-26z" fill="#ffee80"/><path d="m378 70 84 26v98l-84-26z" fill="#ccf5fc"/><g><path d="m303.889 256.01c-2.45-1.806-5.689-2.541-8.846-1.563l-84 26c-4.187 1.296-7.043 5.169-7.043 9.553v108c0 5.285 4.53 10 10 10 .991 0 86.957-26.447 86.957-26.447 4.188-1.296 7.043-5.169 7.043-9.553 0 0 0-107.838 0-108 0-3.306-1.661-6.184-4.111-7.99zm-15.889 108.617-64 19.81v-87.063l64-19.81z"/><path d="m252.041 213.455c2.378 1.73 5.844 2.436 8.789 1.515l40.13-12.42c5.259-1.63 8.219-7.239 6.59-12.509-1.598-5.169-7.35-8.201-12.51-6.591 0 0-40.031 12.392-40.12 12.42-5.168 1.6-8.199 7.337-6.601 12.499.634 2.045 1.99 3.825 3.722 5.086z"/><path d="m303.859 409.94c-2.475-1.784-5.731-2.453-8.818-1.49 0 0-40.049 12.398-40.12 12.42-5.207 1.612-8.216 7.285-6.6 12.5 1.568 5.06 7.263 8.241 12.51 6.601l40.13-12.42c5.26-1.63 8.22-7.239 6.59-12.509-.655-2.118-1.989-3.874-3.692-5.102z"/><path d="m252.037 163.458c2.49 1.778 5.756 2.461 8.793 1.512l40.13-12.42c5.26-1.63 8.219-7.239 6.59-12.509-1.602-5.183-7.329-8.208-12.51-6.591 0 0-40.046 12.397-40.12 12.42-5.177 1.603-8.196 7.339-6.6 12.51.647 2.097 1.997 3.849 3.717 5.078z"/><path d="m303.852 84.948c-2.479-1.781-5.737-2.448-8.812-1.499 0 0-40.016 12.388-40.12 12.42-5.087 1.575-8.163 7.445-6.6 12.51 1.598 5.179 7.344 8.205 12.51 6.59 0 0 40.098-12.41 40.13-12.42 5.211-1.613 8.205-7.295 6.59-12.509-.655-2.115-1.992-3.867-3.698-5.092z"/><path d="m136.957 324.447-84-26c-5.277-1.633-10.877 1.319-12.51 6.596-1.633 5.276 1.32 10.877 6.596 12.51l84 26c.985.305 1.981.45 2.96.45 4.268 0 8.221-2.754 9.549-7.045 1.634-5.277-1.319-10.878-6.595-12.511z"/><path d="m66.968 98.529 44 14c1.009.321 2.03.473 3.035.473 4.238 0 8.173-2.716 9.527-6.97 1.674-5.263-1.234-10.887-6.497-12.562l-44-14c-5.264-1.675-10.887 1.234-12.562 6.497-1.675 5.264 1.234 10.888 6.497 12.562z"/><path d="m49.844 143.42 19.105 5.914c.985.305 1.98.45 2.96.45 4.268 0 8.221-2.754 9.549-7.045 1.633-5.276-1.32-10.876-6.596-12.51l-19.105-5.914c-5.274-1.634-10.877 1.32-12.51 6.596-1.632 5.275 1.321 10.875 6.597 12.509z"/><path d="m136.957 149.447-19.106-5.914c-5.275-1.632-10.876 1.319-12.509 6.596-1.633 5.276 1.32 10.876 6.596 12.509l19.106 5.914c.984.305 1.98.45 2.959.45 4.269 0 8.222-2.754 9.55-7.046 1.633-5.275-1.32-10.876-6.596-12.509z"/><path d="m136.957 374.447-84-26c-5.277-1.632-10.877 1.32-12.51 6.596s1.32 10.877 6.596 12.51l84 26c.985.305 1.981.45 2.96.45 4.268 0 8.221-2.754 9.549-7.045 1.634-5.277-1.319-10.878-6.595-12.511z"/><path d="m136.957 424.447-84-26c-5.277-1.633-10.877 1.32-12.51 6.596s1.32 10.877 6.596 12.51l84 26c.985.305 1.981.45 2.96.45 4.268 0 8.221-2.754 9.549-7.045 1.634-5.277-1.319-10.878-6.595-12.511z"/><path d="m502 331.9c-5.51 0-10 4.49-10 10.01 0 5.51 4.49 9.99 10 9.99s10-4.48 10-9.99c0-5.52-4.49-10.01-10-10.01z"/><path d="m504.92 50.43s-164-49.99-164.012-49.993c-1.876-.57-3.902-.589-5.825-.003l-161.083 49.112-161.083-49.111c-3.032-.924-6.322-.358-8.868 1.529-2.547 1.886-4.049 4.867-4.049 8.036v442c0 4.399 2.875 8.282 7.083 9.565 0 0 163.894 49.968 164 50 .94.287 1.932.435 2.918.435.937 0 2.879-.424 2.915-.435l161.09-49.113 161.074 49.118c.95.28 1.94.43 2.93.43 2.15 0 4.2-.68 5.94-1.96 2.54-1.88 4.05-4.88 4.05-8.04v-115.1c0-5.51-4.49-9.99-10-9.99s-10 4.48-10 9.99v101.6l-144-43.91v-421.09l144 43.91v229.49c0 5.52 4.49 10 10 10s10-4.48 10-10v-236.9c0-4.43-2.85-8.27-7.08-9.57zm-484.92-26.926 144 43.902v421.091l-144-43.903zm164 43.902 144-43.902v421.091l-144 43.902z"/><path d="m464.957 336.447s-83.852-25.954-84-26c-6.319-1.956-12.957 2.972-12.957 9.553v98c0 4.384 2.855 8.257 7.043 9.553l84 26c.97.3 1.965.447 2.956.447 5.449 0 10.001-4.565 10.001-10v-98c0-4.384-2.855-8.257-7.043-9.553zm-12.957 93.99-64-19.81v-77.063l64 19.81z"/><path d="m375.043 177.553 84 26c6.326 1.959 12.957-2.95 12.957-9.553v-98c0-4.384-2.855-8.257-7.043-9.553 0 0-83.894-25.967-84-26-6.342-1.963-12.957 2.949-12.957 9.553v98c0 4.384 2.856 8.257 7.043 9.553zm12.957-93.989 64 19.81v77.063l-64-19.81z"/><path d="m464.957 288.447-84-26c-5.276-1.633-10.877 1.32-12.51 6.596s1.32 10.877 6.596 12.51c0 0 83.861 25.957 84 26 5.085 1.574 10.893-1.372 12.51-6.596 1.633-5.276-1.32-10.877-6.596-12.51z"/><path d="m464.957 238.447-84-26c-5.276-1.634-10.877 1.32-12.51 6.596s1.32 10.877 6.596 12.51c0 0 83.994 25.998 84 26 5.099 1.578 10.887-1.351 12.51-6.596 1.633-5.276-1.32-10.877-6.596-12.51z"/><circle cx="215" cy="218" r="10"/><circle cx="215" cy="169" r="10"/><circle cx="215" cy="119" r="10"/><circle cx="215" cy="444" r="10"/></g></g></svg>